HIERARCHY
ROOT Hips
{
	OFFSET -3.958830 18.904000 13.208200
	CHANNELS 6 Xposition Yposition Zposition Zrotation Yrotation Xrotation 
	JOINT LHipJoint
	{
		OFFSET 0.000000 0.000000 0.000000
		CHANNELS 3 Zrotation Yrotation Xrotation
		JOINT LeftUpLeg
		{
			OFFSET 1.800000 -1.400000 0.085000
			CHANNELS 3 Zrotation Yrotation Xrotation
			JOINT LeftLeg
			{
				OFFSET 2.215000 -6.000000 0.000000
				CHANNELS 3 Zrotation Yrotation Xrotation
				JOINT LeftFoot
				{
					OFFSET 2.500000 -6.900000 0.000000
					CHANNELS 3 Zrotation Yrotation Xrotation
					JOINT LeftToeBase
					{
						OFFSET 0.200000 -0.500000 1.950000
						CHANNELS 3 Zrotation Yrotation Xrotation
						End Site
						{
							OFFSET 0.000000 0.000000 0.000000
						}
					}
				}
			}
		}
	}
	JOINT RHipJoint
	{
		OFFSET 0.000000 0.000000 0.000000
		CHANNELS 3 Zrotation Yrotation Xrotation
		JOINT RightUpLeg
		{
			OFFSET -1.800000 -1.400000 0.085000
			CHANNELS 3 Zrotation Yrotation Xrotation
			JOINT RightLeg
			{
				OFFSET -2.215000 -6.000000 0.000000
				CHANNELS 3 Zrotation Yrotation Xrotation
				JOINT RightFoot
				{
					OFFSET -2.500000 -6.900000 0.000000
					CHANNELS 3 Zrotation Yrotation Xrotation
					JOINT RightToeBase
					{
						OFFSET -0.200000 -0.500000 1.950000
						CHANNELS 3 Zrotation Yrotation Xrotation
						End Site
						{
							OFFSET 0.000000 0.000000 0.000000
						}
					}
				}
			}
		}
	}
	JOINT LowerBack
	{
		OFFSET 0.000000 0.000000 0.000000
		CHANNELS 3 Zrotation Yrotation Xrotation
		JOINT Spine
		{
			OFFSET -0.087000 1.940000 -0.288900
			CHANNELS 3 Zrotation Yrotation Xrotation
			JOINT Spine1
			{
				OFFSET 0.000000 1.950000 0.060000
				CHANNELS 3 Zrotation Yrotation Xrotation
				JOINT Neck
				{
					OFFSET 0.000000 0.000000 0.000000
					CHANNELS 3 Zrotation Yrotation Xrotation
					JOINT Neck1
					{
						OFFSET 0.000000 1.600000 0.340000
						CHANNELS 3 Zrotation Yrotation Xrotation
						JOINT Head
						{
							OFFSET 0.000000 1.667000 -0.240000
							CHANNELS 3 Zrotation Yrotation Xrotation
							End Site
							{
								OFFSET 0.000000 0.000000 0.000000
							}
						}
					}
				}
				JOINT LeftShoulder
				{
					OFFSET 0.000000 0.000000 0.000000
					CHANNELS 3 Zrotation Yrotation Xrotation
					JOINT LeftArm
					{
						OFFSET 2.700000 1.550000 -0.730000
						CHANNELS 3 Zrotation Yrotation Xrotation
						JOINT LeftForeArm
						{
							OFFSET 5.450000 0.000000 0.000000
							CHANNELS 3 Zrotation Yrotation Xrotation
							JOINT LeftHand
							{
								OFFSET 3.450000 0.000000 0.000000
								CHANNELS 3 Zrotation Yrotation Xrotation
								JOINT LeftHandIndex1
								{
									OFFSET 0.750000 0.000000 0.000000
									CHANNELS 3 Zrotation Yrotation Xrotation
									End Site
									{
										OFFSET 0.000000 0.000000 0.000000
									}
								}
							}
						}
					}
				}
				JOINT RightShoulder
				{
					OFFSET 0.000000 0.000000 0.000000
					CHANNELS 3 Zrotation Yrotation Xrotation
					JOINT RightArm
					{
						OFFSET -2.700000 1.550000 -0.730000
						CHANNELS 3 Zrotation Yrotation Xrotation
						JOINT RightForeArm
						{
							OFFSET -5.450000 0.000000 0.000000
							CHANNELS 3 Zrotation Yrotation Xrotation
							JOINT RightHand
							{
								OFFSET -3.450000 0.000000 0.000000
								CHANNELS 3 Zrotation Yrotation Xrotation
								JOINT RightHandIndex1
								{
									OFFSET -0.750000 0.000000 0.000000
									CHANNELS 3 Zrotation Yrotation Xrotation
									End Site
									{
										OFFSET 0.000000 0.000000 0.000000
									}
								}
							}
						}
					}
				}
			}
		}
	}
}
MOTION
Frames: 4
Frame Time: 0.016667
-0.854460 15.513510 -1.175490 -4.796216 -21.278131 -0.596898 -15.226692 12.637934 3.193194 6.701796 -4.574502 -23.461326 -6.601692 12.677664 43.184135 0.606855 8.401983 1.623024 0.143220 0.022790 0.080510 18.208167 -9.655041 3.792506 -21.610572 3.217343 -15.495549 38.148463 -14.962415 18.680317 -0.849377 -7.327846 1.788433 0.119930 0.251690 0.080200 -3.362686 -2.356103 -8.206663 7.265161 1.208398 13.170321 0.978818 2.261447 -1.378232 0.344896 -5.077331 -5.324511 -11.161386 8.178909 34.169266 -1.075160 6.304000 0.302300 -33.838255 -1.446818 -0.083317 -37.457508 3.367854 -3.841312 -16.930177 -9.178505 -0.126210 -3.889553 3.082262 0.045130 0.217430 -0.156280 0.124940 33.200859 6.228310 3.149605 34.334926 -1.821372 -5.674720 13.660999 14.464192 0.088431 2.364004 -1.427161 -0.141470 0.114620 -0.003630 -0.083030 
-0.838520 15.486200 -1.168360 -5.135735 -20.965124 -0.732023 -15.213336 12.547706 3.188476 6.916375 -4.685700 -23.743566 -6.213419 12.858106 44.453279 0.645762 8.608842 1.553004 0.152000 0.028140 0.094620 18.236674 -9.560727 3.926089 -22.859854 3.330248 -15.817425 40.475365 -15.739343 18.768142 -0.936528 -7.588676 1.695291 0.119920 0.235310 0.078610 -3.442706 -2.306736 -8.307749 8.018566 1.141172 13.616028 0.651141 2.315858 -1.655249 0.495535 -4.911963 -5.305276 -10.884909 7.598148 34.607365 -1.312590 5.855860 -0.021450 -34.325005 -1.536794 -0.149794 -37.196828 3.488952 -3.855178 -16.767963 -9.000318 -0.158726 -3.870252 3.070872 0.058900 0.204110 -0.143270 0.123800 33.293048 6.203421 3.166341 34.194360 -1.905501 -5.777842 13.902383 15.054771 0.179531 2.358093 -1.429708 -0.139520 0.115450 -0.011120 -0.087150 
-0.814830 15.427460 -1.145560 -5.776412 -20.199240 -1.036472 -15.195121 12.398321 3.150200 7.162936 -4.858306 -23.983201 -5.349118 13.061625 46.652530 0.717051 8.940021 1.438175 0.166730 0.042410 0.112210 18.287340 -9.373628 4.188698 -25.522386 3.396105 -16.179713 45.290420 -17.217046 18.529601 -1.103965 -8.060089 1.532189 0.120490 0.206880 0.079060 -3.572096 -2.257811 -8.480103 9.231224 0.929962 14.264773 0.060053 2.282096 -2.210593 0.788086 -4.452536 -5.224831 -10.054563 6.967761 35.530504 -1.355580 5.438930 -0.459610 -35.262511 -1.598317 -0.225457 -36.473952 4.052996 -3.893214 -16.043652 -8.458642 -0.262382 -3.838979 3.059021 0.077440 0.183440 -0.120750 0.120710 33.520059 5.879995 3.078115 34.034975 -2.165621 -5.985243 13.597005 15.974828 0.279662 2.350790 -1.430950 -0.129920 0.109830 -0.021280 -0.092580 
-0.790230 15.372310 -1.123800 -6.466692 -19.570463 -1.622230 -15.192850 12.284229 3.132622 7.745045 -4.930941 -24.183975 -4.733577 13.551427 49.057742 0.814830 9.383394 1.288669 0.166580 0.033780 0.128870 18.323321 -9.170919 4.437873 -28.392544 3.474551 -16.754150 50.279431 -19.173900 18.915488 -1.277620 -8.552559 1.369170 0.106740 0.178520 0.076890 -3.644911 -2.305055 -8.678254 10.345681 0.761669 15.082020 -0.167753 2.325120 -2.847464 1.051435 -4.114020 -5.298765 -9.658868 6.560569 37.227302 -1.607840 5.203420 -0.339380 -36.259145 -1.774499 -0.249172 -35.961812 4.623675 -3.865673 -15.839797 -7.602885 -0.387244 -3.810794 3.040420 0.099300 0.162890 -0.101830 0.109010 33.918833 5.829019 3.124141 33.578025 -2.387213 -6.080087 13.051837 16.355456 0.332622 2.350956 -1.419819 -0.125540 0.101630 -0.023460 -0.102980 
